# xmcd
#
# Track frame offsets: 
#        182
#        12322
#        23985
#        34372
#        47762
#        58877
#        71627
#        82237
#        92220
#        103225
#        118325
#        130857
#        142822
#        154730
#        170355
#        185852
#        196985
#        212117
#        220870
#        231307
#        241817
#
# Disc length: 3358 seconds
#
# Revision: 2
# Processed by: cddbd v1.5.2PL0 Copyright (c) Steve Scherf et al.
# Submitted via: ExactAudioCopy v1.0b1
#
DISCID=400d1c15
DTITLE=Big Maybelle - Savoy Blues Legends: Candy!
DYEAR=2001
DGENRE=R&B
TTITLE0=Candy (mono)
TTITLE1=That's A Pretty Good Love (mono)
TTITLE2=Ring Dang Dilly (mono)
TTITLE3=Pitiful (mono)
TTITLE4=Mean To Me (mono)
TTITLE5=There I've Said It Again (mono)
TTITLE6=I Don't Want To Cry (mono)
TTITLE7=Tell Me Who (mono)
TTITLE8=If I Could Be With You (mono)
TTITLE9=Jim (mono)
TTITLE10=It's A Sin To Tell A Lie (mono)
TTITLE11=I Could Make You Care (mono)
TTITLE12=All Of Me (mono)
TTITLE13=Stay As Sweet As You Are (mono)
TTITLE14=Baby, Won't You Please Come Home (mono)
TTITLE15=Say It Isn't So (mono)
TTITLE16=So Long (mono)
TTITLE17=A Little Bird Told Me (mono)
TTITLE18=Rock House (mono)
TTITLE19=Silent Night (mono)
TTITLE20=White Christmas (mono)
EXTD=Savoy Jazz
EXTT0=
EXTT1=
EXTT2=
EXTT3=
EXTT4=
EXTT5=
EXTT6=
EXTT7=
EXTT8=
EXTT9=
EXTT10=
EXTT11=
EXTT12=
EXTT13=
EXTT14=
EXTT15=
EXTT16=
EXTT17=
EXTT18=
EXTT19=
EXTT20=
PLAYORDER=
